<?xml version="1.0" standalone="no"?>
<!DOCTYPE svg PUBLIC "-//W3C//DTD SVG 20010904//EN"
 "http://www.w3.org/TR/2001/REC-SVG-20010904/DTD/svg10.dtd">
<svg version="1.0" xmlns="http://www.w3.org/2000/svg"
 width="700.000000pt" height="700.000000pt" viewBox="0 0 700.000000 700.000000"
 preserveAspectRatio="xMidYMid meet">
<metadata>
Created by potrace 1.14, written by Peter Selinger 2001-2017
</metadata>
<g transform="translate(0.000000,700.000000) scale(0.100000,-0.100000)"
fill="#000000" stroke="none">
<path d="M3570 6825 c-400 -46 -738 -155 -1064 -342 -339 -194 -651 -477 -867
-786 -180 -258 -328 -567 -395 -822 -41 -156 -54 -258 -54 -430 -1 -397 -81
-657 -302 -975 -155 -222 -237 -368 -262 -466 -21 -83 -20 -169 3 -219 35 -77
171 -185 232 -185 62 0 105 -110 90 -231 -5 -41 -12 -123 -16 -184 -8 -139 -1
-152 80 -181 137 -47 146 -61 146 -227 0 -119 -3 -145 -38 -277 -50 -185 -20
-304 108 -433 82 -82 179 -132 296 -151 43 -8 182 -17 309 -20 351 -10 616
-53 704 -116 54 -39 65 -72 63 -195 0 -60 -8 -139 -16 -175 -21 -87 -13 -149
25 -194 l29 -36 1585 0 c1690 0 1630 -2 1648 45 21 56 9 97 -169 600 -60 168
-66 187 -138 460 -71 266 -95 378 -116 545 -45 349 -50 487 -21 565 6 17 53
68 113 120 321 283 528 550 656 845 13 30 34 78 46 105 27 60 96 282 118 380
80 346 66 817 -34 1145 -64 209 -104 312 -175 450 -83 161 -115 214 -208 340
-111 149 -267 318 -396 427 -152 127 -391 286 -528 349 -42 19 -94 44 -114 55
-20 11 -61 28 -90 39 -29 10 -84 31 -123 45 -317 116 -777 169 -1125 130z
m450 -406 c369 -34 695 -158 1000 -382 163 -120 358 -330 467 -502 46 -73 146
-275 139 -282 -3 -3 -31 17 -61 46 -59 55 -118 86 -232 120 -82 25 -91 31
-167 128 -154 197 -359 291 -646 298 -98 3 -143 8 -165 19 -16 9 -35 16 -42
16 -7 0 -47 15 -90 34 -164 72 -301 74 -468 8 -55 -22 -145 -54 -199 -71 -97
-31 -102 -32 -275 -30 -166 2 -181 1 -256 -24 -124 -41 -207 -100 -308 -222
-58 -70 -128 -120 -243 -177 -154 -76 -243 -184 -275 -335 -9 -43 -22 -69 -49
-98 -126 -137 -170 -249 -170 -430 0 -154 43 -258 153 -368 112 -113 267 -167
478 -167 108 0 158 -18 227 -82 32 -29 90 -69 127 -88 65 -33 77 -35 195 -41
143 -6 179 -20 261 -96 79 -74 94 -149 63 -330 -9 -53 -15 -128 -12 -173 3
-74 5 -81 38 -115 19 -19 50 -40 70 -45 95 -27 225 3 323 75 104 77 154 173
186 363 12 68 28 134 37 147 27 42 72 42 156 2 132 -63 209 -82 338 -82 163 1
195 17 355 181 67 68 127 124 134 124 25 0 155 72 235 130 188 137 317 282
371 419 42 107 53 297 30 491 -3 19 5 1 16 -40 17 -61 21 -103 21 -230 0 -280
-36 -467 -147 -770 -49 -133 -177 -355 -283 -490 -53 -67 -259 -277 -287 -292
-11 -6 -36 -23 -55 -38 -123 -93 -186 -132 -338 -204 -108 -52 -289 -115 -417
-144 -251 -58 -613 -53 -865 13 -194 50 -448 158 -547 231 -17 13 -36 24 -41
24 -5 0 -30 16 -55 35 -26 19 -68 51 -94 70 -134 100 -319 300 -405 436 -51
81 -55 89 -92 159 -147 284 -216 565 -216 888 0 179 12 278 50 427 105 407
275 707 545 958 246 230 578 403 898 468 214 44 397 56 587 38z m91 -675 c30
-9 84 -34 121 -55 66 -39 67 -39 175 -39 190 -1 346 -30 438 -84 42 -25 134
-117 200 -202 52 -67 82 -87 185 -122 122 -41 215 -104 259 -176 26 -41 50
-225 54 -401 3 -191 -22 -257 -148 -386 -83 -85 -150 -135 -290 -214 -66 -38
-132 -76 -147 -84 -35 -21 -122 -105 -181 -174 -82 -97 -150 -98 -389 -8 -144
54 -223 65 -299 40 -108 -36 -198 -183 -199 -324 0 -66 -35 -164 -72 -202 -32
-34 -115 -83 -139 -83 -14 0 -7 87 17 221 15 83 15 90 -4 168 -25 97 -55 150
-123 219 -110 111 -231 163 -384 165 -95 2 -103 4 -150 34 -28 18 -60 41 -72
52 -45 42 -132 90 -190 105 -40 11 -105 16 -186 16 -103 0 -135 4 -179 21 -91
34 -148 84 -188 164 -32 64 -35 76 -35 160 1 81 4 96 32 150 30 58 91 125 144
157 22 14 27 27 37 99 21 148 59 203 182 264 119 59 196 112 262 179 37 39 68
74 68 78 0 14 136 116 170 127 22 7 102 10 210 9 212 -2 335 19 452 78 40 21
91 43 113 50 57 18 191 17 256 -2z m1883 -748 c-3 -9 -12 -12 -22 -9 -15 6 -9
11 25 22 1 1 0 -5 -3 -13z m56 6 c0 -5 -7 -9 -15 -9 -8 0 -12 4 -9 9 3 4 9 8
15 8 5 0 9 -4 9 -8z m55 -51 c-6 -5 -25 10 -25 20 0 5 6 4 14 -3 8 -7 12 -15
11 -17z m-107 -29 c-2 -11 3 -16 15 -14 26 4 20 -7 -9 -19 -15 -5 -24 -12 -21
-15 3 -3 14 -1 26 5 11 6 22 7 25 2 7 -11 -42 -21 -62 -13 -12 4 -12 6 0 13 9
5 14 21 13 38 -1 17 2 28 7 25 5 -3 7 -13 6 -22z m72 18 c0 -5 8 -7 18 -4 13
5 14 4 3 -4 -15 -11 -41 -5 -41 9 0 5 5 9 10 9 6 0 10 -4 10 -10z m47 -35 c-4
-8 -11 -15 -17 -15 -6 0 -6 7 2 20 14 22 24 19 15 -5z m-53 -11 c3 -8 2 -12
-4 -9 -6 3 -10 10 -10 16 0 14 7 11 14 -7z m50 -26 c-3 -4 -9 -8 -15 -8 -5 0
-9 4 -9 8 0 5 7 9 15 9 8 0 12 -4 9 -9z m-47 -14 c-3 -4 1 -13 9 -21 8 -8 11
-20 7 -26 -4 -6 -10 -1 -16 14 -8 22 -10 23 -16 5 -6 -17 -8 -17 -14 -4 -4 11
-14 15 -29 12 -21 -4 -21 -4 -3 4 11 5 25 7 31 5 7 -2 15 0 19 6 3 6 9 11 12
11 4 0 4 -3 0 -6z m78 -23 c3 -5 2 -12 -3 -15 -5 -3 -9 1 -9 9 0 17 3 19 12 6z
m25 -71 c0 -4 -6 -10 -14 -13 -12 -5 -14 2 -7 31 2 7 21 -10 21 -18z m-340
-1631 c0 -5 -4 -9 -8 -9 -5 0 -9 7 -9 15 0 8 4 12 9 9 4 -3 8 -9 8 -15z m-120
-19 c0 -5 -2 -10 -4 -10 -3 0 -8 5 -11 10 -3 6 -1 10 4 10 6 0 11 -4 11 -10z
m77 -20 c1 -18 -2 -28 -7 -25 -15 9 -11 55 4 55 1 0 2 -14 3 -30z m-53 -2 c-5
-8 -1 -9 12 -4 10 4 15 4 11 0 -4 -4 -1 -14 6 -22 10 -13 9 -15 -7 -9 -15 6
-17 5 -7 -6 14 -18 -15 -56 -137 -181 -116 -118 -147 -141 -173 -130 -20 9
-18 13 27 79 26 39 61 86 78 106 17 20 43 50 57 67 15 17 30 28 34 24 3 -4 5
-2 4 3 -5 17 31 75 46 75 18 0 19 -21 3 -40 -7 -8 -4 -7 8 3 11 9 25 14 29 10
5 -5 3 0 -4 9 -13 18 -6 42 10 32 5 -3 6 -10 3 -16z"/>
<path d="M3575 5028 c-3 -13 -12 -57 -20 -98 -40 -200 -133 -280 -312 -268
-86 6 -107 -3 -208 -87 -84 -71 -98 -87 -68 -79 11 3 50 -6 88 -21 l68 -25 46
38 c45 38 48 39 142 44 74 4 108 11 152 31 65 30 161 115 187 168 29 55 50
151 50 222 0 93 -3 97 -66 97 -47 0 -54 -3 -59 -22z"/>
</g>
</svg>
